<?xml version="1.0" encoding="UTF-8"?>
<svg id="Layer_1" xmlns="http://www.w3.org/2000/svg" version="1.1" viewBox="0 0 843.67 556.58">
  <!-- Generator: Adobe Illustrator 29.7.1, SVG Export Plug-In . SVG Version: 2.1.1 Build 8)  -->
  <defs>
    <style>
      .st0 {
        fill: #fcfcfb;
      }

      .st1 {
        fill: #020202;
      }

      .st2 {
        fill: #fff;
      }

      .st3 {
        fill: #323537;
      }

      .st4 {
        fill: #313536;
      }

      .st5 {
        fill: #f70505;
      }
    </style>
  </defs>
  <path class="st4" d="M411.41,434.09c-1.54,0-124.33.05-184.19.09-52.9.03-105.8.13-158.7.14-19.7,0-36.85-11.24-44.24-28.82-2.59-6.15-3.62-12.59-3.62-19.24,0-56.05-.03-112.09-.05-168.13,0-17.25-.07-34.5.02-51.76.15-26.23,18.92-45.23,45.14-45.83,1.6-.03,3.2,0,5.14,0,0-3.21-.04-6.13,0-9.06.09-5.29,3.67-9.06,8.97-9.09,16.2-.09,32.4-.09,48.61-.05,5.08.02,8.4,3.32,8.58,8.4.11,3.13.02,6.28.02,9.67.94.07,1.76.17,2.57.17,7.72.02,15.45-.13,23.16.11,2.73.09,3.8-.98,4.72-3.28,3.29-8.22,6.82-16.34,10.16-24.54,4.93-12.08,14.17-17.95,26.91-18,40.89-.15,81.78-.17,122.67-.01,12.28.05,21.63,5.48,26.84,16.97,4,8.83,7.83,17.75,11.71,26.56l45.56,315.7ZM93.21,184.87c4.81-6.84,4.96-15.12.38-21.29-4.42-5.95-12.43-8.45-19.38-6.02-6.73,2.35-11.29,8.5-11.5,15.53-.21,7.41,3.89,14.14,10.2,16.74,7.16,2.94,14.36,1.28,20.29-4.95h0Z"/>
  <path class="st0" d="M93.07,185.03c-5.8,6.07-13.01,7.73-20.17,4.79-6.31-2.59-10.41-9.33-10.2-16.74.2-7.02,4.76-13.18,11.5-15.53,6.94-2.42,14.96.07,19.38,6.02,4.58,6.17,4.43,14.46-.51,21.45h0Z"/>
  <circle class="st2" cx="248.3" cy="273.71" r="101.01"/>
  <path class="st0" d="M216.64,264.23c-7.31-2.5-11.47-7.49-12.38-14.86-.86-7.02,1.73-12.74,7.73-16.67,6.09-3.99,13.97-3.51,19.76,1.08,5.96,4.72,8.37,12.59,5.95,19.48-2.55,7.28-8.89,11.74-16.61,11.59-1.41-.03-2.83-.36-4.46-.62h0Z"/>
  <circle class="st5" cx="564.81" cy="261.69" r="243.59"/>
  <circle class="st2" cx="564.81" cy="261.69" r="219.23"/>
  <path class="st3" d="M306.71,312.91c-22.05,33.32-68.3,41.26-100.06,17.26-18.22-13.76-28.29-32-28.84-54.89-.8-33.83,22.23-62.99,55.23-70.66,38.4-8.93,77.14,16.7,84.3,55.72,3.47,18.89-.02,36.34-10.64,52.58M216.86,264.3c1.41.19,2.82.53,4.23.55,7.72.15,14.06-4.31,16.61-11.59,2.41-6.89.01-14.76-5.95-19.48-5.79-4.59-13.67-5.07-19.76-1.08-6,3.93-8.59,9.65-7.73,16.67.9,7.37,5.06,12.36,12.6,14.92h0Z"/>
  <path class="st1" d="M583.53,290.15c-20.17,11-44.45,2.63-51.84-17.69-9.4-25.88,11.45-51.62,38.71-47.84.92.13,2.15-.21,2.9-.77,33.74-25.36,67.43-50.79,101.15-76.17,5.14-3.87,10.4-7.59,15.62-11.37.36-.26.8-.41,1.67-.2-.82,1.14-1.6,2.3-2.46,3.41-20.14,26.14-40.3,52.26-60.43,78.41-8.89,11.54-17.71,23.14-26.65,34.64-1.24,1.6-1.65,3.13-1.59,5.12.39,13.9-5.2,24.73-17.09,32.46h0Z"/>
  <path class="st5" d="M565.08,38.9c-86.35,0-161.23,49.06-198.3,120.83l49.58,25.56c13.16-25.49,32.69-47.15,56.48-62.9l-19-32.91,16.87-9.74,18.97,32.86c22.66-11.46,48.28-17.93,75.4-17.93s51.34,6.12,73.53,16.99l19.04-32.97,16.87,9.74-18.94,32.81c5.12,3.3,10.05,6.87,14.76,10.7l50.09-25.48-27.62,47.46c3.84,4.54,7.46,9.29,10.81,14.23l32.58-18.81,9.74,16.87-32.34,18.67c12,23.07,18.78,49.28,18.78,77.07,0,17.91-2.83,35.16-8.04,51.34l53.1,17.12c6.95-21.57,10.71-44.57,10.71-68.46,0-123.19-99.87-223.06-223.06-223.06h0Z"/>
  <rect class="st4" x="554.29" y="56.77" width="19.48" height="51.95"/>
  <rect class="st4" x="716" y="232.95" width="51.95" height="19.48" transform="translate(-19.64 71.3) rotate(-5.43)"/>
</svg>