<?xml version="1.0" encoding="UTF-8"?>
<svg xmlns="http://www.w3.org/2000/svg" version="1.1" viewBox="0 0 789.18 620.38">
  <!-- Generator: Adobe Illustrator 29.7.1, SVG Export Plug-In . SVG Version: 2.1.1 Build 8)  -->
  <defs>
    <style>
      .st0 {
        fill: #d32f2f;
      }

      .st1 {
        fill: #ccc;
      }

      .st2 {
        fill: #020202;
      }

      .st3 {
        fill: #fff;
      }

      .st4 {
        fill: #fdffff;
      }

      .st5 {
        fill: #313536;
      }
    </style>
  </defs>
  <g id="Layer_1">
    <path class="st4" d="M471.77,15.95c-36.09,0-71.21,6.45-104.57,19.18-19.08.02-36.62.06-53.35.13-17.91.07-34,4.75-47.85,13.9-9.6,6.34-17.79,14.76-24.18,24.79-7.11-2.82-14.81-4.31-22.77-4.34-9.07-.03-17.35-.04-25.34-.04-12.75,0-24.48.03-35.88.1-16.65.09-32.12,6.58-43.55,18.28-3,3.07-5.64,6.43-7.9,10.02-15.9,5.24-30.24,14.03-41.95,25.9-19.43,19.7-30.22,46.5-30.39,75.47-.09,15.23-.07,30.62-.05,45.5,0,6.5.02,12.99.02,19.49l.02,69.42c.02,46.92.04,93.84.04,140.76,0,15.5,2.84,30.11,8.43,43.42,17.03,40.49,56.83,66.65,101.4,66.65,38.6,0,77.82-.05,115.75-.09,27.55-.03,55.1-.06,82.65-.08l26.08-.02c33.02,12.44,67.74,18.74,103.38,18.74,39.61,0,78.07-7.77,114.29-23.09,34.97-14.79,66.36-35.95,93.3-62.9,26.95-26.95,48.11-58.34,62.9-93.3,15.32-36.23,23.09-74.68,23.09-114.29s-7.77-78.07-23.09-114.29c-14.79-34.97-35.95-66.36-62.9-93.3-26.95-26.95-58.34-48.11-93.3-62.9-36.23-15.32-74.68-23.09-114.29-23.09h0Z"/>
  </g>
  <g id="Layer_1_copy">
    <path class="st5" d="M478.73,534.3c-1.92,0-61.63.06-136.45.11-66.13.04-132.25.16-198.37.17-24.62,0-46.06-14.05-55.3-36.03-3.23-7.69-4.53-15.73-4.53-24.05,0-70.06-.04-140.11-.06-210.17,0-21.57-.09-43.13.03-64.7.19-32.79,23.65-56.53,56.43-57.28,1.99-.04,4,0,6.42,0,0-4.01-.05-7.66,0-11.32.11-6.61,4.58-11.32,11.22-11.36,20.25-.11,40.51-.11,60.77-.06,6.36.02,10.5,4.15,10.72,10.49.14,3.92.03,7.85.03,12.09,1.18.09,2.19.21,3.22.21,9.65.03,19.31-.16,28.95.14,3.42.11,4.75-1.23,5.9-4.1,4.12-10.27,8.52-20.42,12.7-30.68,6.16-15.1,17.71-22.44,33.64-22.5,51.11-.19,102.22-.21,153.34-.01,15.35.06,27.04,6.86,33.55,21.22,5,11.04,9.79,22.18,14.64,33.21l-36.83,394.63ZM174.75,222.76c6.01-8.55,6.2-18.9.47-26.62-5.52-7.44-15.54-10.56-24.22-7.53-8.41,2.94-14.11,10.63-14.37,19.41-.26,9.26,4.86,17.68,12.75,20.92,8.95,3.67,17.95,1.59,25.36-6.18h0Z"/>
    <circle class="st1" cx="293.71" cy="326.93" r="129.33"/>
    <circle class="st0" cx="471.77" cy="309.54" r="243.59"/>
    <circle class="st3" cx="471.77" cy="309.54" r="210.59"/>
    <path class="st0" d="M472.04,88.98c-85.48,0-159.62,48.57-196.32,119.62l49.08,25.3c13.03-25.23,32.36-46.68,55.91-62.28l-18.81-32.58,16.7-9.64,18.78,32.53c22.43-11.35,47.79-17.75,74.65-17.75s50.82,6.06,72.79,16.82l18.85-32.64,16.7,9.64-18.75,32.48c5.07,3.26,9.95,6.8,14.61,10.59l49.58-25.22-27.34,46.99c3.81,4.5,7.39,9.2,10.71,14.09l32.26-18.62,9.64,16.7-32.02,18.49c11.88,22.84,18.59,48.78,18.59,76.3,0,17.73-2.8,34.81-7.96,50.83l52.57,16.94c6.88-21.36,10.6-44.13,10.6-67.77,0-121.96-98.87-220.83-220.83-220.83h0Z"/>
    <rect class="st1" x="460.17" y="116.12" width="21.48" height="82.83"/>
    <polygon class="st1" points="664.42 298.09 664.27 319.58 585.72 319.15 585.88 297.67 664.42 298.09"/>
    <path class="st2" d="M597.04,184.16l-101.14,74.61c-7.31-3.48-15.49-5.43-24.13-5.43-31.04,0-56.21,25.17-56.21,56.21s25.17,56.21,56.21,56.21,56.21-25.17,56.21-56.21c0-8.5-1.9-16.55-5.27-23.78l74.34-101.6Z"/>
  </g>
</svg>