<?xml version="1.0" encoding="UTF-8"?>
<svg xmlns="http://www.w3.org/2000/svg" version="1.1" viewBox="0 0 1412.27 832.18">
  <!-- Generator: Adobe Illustrator 29.7.1, SVG Export Plug-In . SVG Version: 2.1.1 Build 8)  -->
  <defs>
    <style>
      .st0 {
        fill: #fcfcfb;
      }

      .st1 {
        fill: #020202;
      }

      .st2 {
        fill: #fff;
      }

      .st3 {
        fill: #323537;
      }

      .st4 {
        fill: #313536;
      }

      .st5 {
        fill: #f70505;
      }
    </style>
  </defs>
  <g id="Outline">
    <path class="st2" d="M985.86,18.07c-117.31,0-223.05,48.42-297.46,125.93-.27-.61-.54-1.22-.8-1.83-4.66-10.68-9.49-21.73-14.44-32.65-14.41-31.79-43.09-50.1-78.68-50.24-69.35-.26-141.6-.26-214.75.02-36.65.14-65.57,19.54-79.32,53.25-2.49,6.1-5.11,12.36-7.65,18.41-.47,1.13-.95,2.26-1.42,3.39-8.17-16.23-24.77-26.96-44.47-27.02-31.73-.09-59.63-.07-85.29.08-22.71.13-41.16,14.06-47.82,34.28-22.39,4.61-42.53,15.3-58.14,31.14-20.74,21.04-32.26,49.89-32.45,81.24-.13,21.96-.1,44.22-.07,65.75.01,8.32.02,16.64.02,24.96l.03,99.62c.02,64.79.05,129.57.05,194.36,0,17.01,3.05,32.89,9.07,47.2,18.35,43.65,61.37,71.84,109.61,71.84h.02c55.59,0,112.1-.07,166.76-.13,36.92-.04,73.83-.08,110.75-.11,73.98-.05,147.96-.08,221.95-.11l100.09-.04c7.7,0,14.95-2.53,20.84-6.9,64.21,41.21,141.03,65.19,223.57,65.19,225.28,0,407.91-178.55,407.91-398.81S1211.14,18.07,985.86,18.07Z"/>
  </g>
  <g id="Layer_1">
    <path class="st4" d="M602.51,275.69c-5.12,16.36-10.09,32.37-14.98,48.12-38.52-41.71-86.49-62.56-143.94-58.3-48.57,3.6-89.18,24.78-121.1,61.53-62.66,72.15-55.4,182.08,16.24,245.64,40.39,35.84,87.91,50.82,141.45,43.68,53.5-7.13,94.15-35.45,124.21-79.81,13.29,37.19,31.58,71.44,55.07,102.81,23.38,31.22,50.26,59.08,81.97,83.04-2.69,0-5.39,0-8.08,0-104.66.05-209.32.08-313.98.15-92.5.06-184.99.22-277.49.24-34.44,0-64.43-19.66-77.36-50.4-4.52-10.75-6.33-22.01-6.33-33.64-.01-98-.06-195.99-.09-293.99,0-30.17-.13-60.33.04-90.5.27-45.87,33.08-79.08,78.93-80.13,2.79-.06,5.59,0,8.98,0,0-5.61-.07-10.72.01-15.84.15-9.25,6.41-15.84,15.69-15.89,28.33-.16,56.66-.16,85-.08,8.89.03,14.69,5.8,15,14.68.19,5.48.04,10.98.04,16.91,1.65.12,3.07.3,4.5.3,13.5.04,27.01-.23,40.49.2,4.78.15,6.65-1.72,8.26-5.74,5.76-14.37,11.92-28.57,17.77-42.91,8.62-21.12,24.77-31.39,47.05-31.48,71.5-.27,142.99-.29,214.49-.02,21.47.08,37.82,9.59,46.93,29.68,7,15.44,13.69,31.03,20.48,46.45-25.58,31.72-44.91,66.86-59.24,105.27M185.03,286.62c8.41-11.96,8.67-26.44.66-37.23-7.72-10.41-21.74-14.77-33.88-10.53-11.77,4.11-19.74,14.87-20.1,27.15-.37,12.96,6.8,24.73,17.83,29.27,12.52,5.14,25.11,2.23,35.48-8.65Z"/>
    <path class="st3" d="M558.35,510.5c-38.55,58.27-119.42,72.14-174.96,30.18-31.85-24.06-49.47-55.96-50.43-95.98-1.4-59.15,38.87-110.14,96.58-123.56,67.15-15.61,134.88,29.2,147.4,97.43,6.06,33.03-.04,63.54-18.6,91.93M401.24,425.5c2.47.34,4.93.92,7.4.97,13.5.26,24.59-7.53,29.05-20.26,4.22-12.05.02-25.81-10.41-34.07-10.12-8.02-23.9-8.86-34.55-1.88-10.49,6.87-15.02,16.88-13.52,29.15,1.58,12.88,8.85,21.61,22.03,26.09Z"/>
    <path class="st1" d="M1014.34,463.53c-33.9,18.49-74.69,4.42-87.1-29.73-15.8-43.49,19.24-86.73,65.05-80.39,1.55.22,3.61-.35,4.87-1.29,56.69-42.62,113.3-85.34,169.96-127.99,8.64-6.51,17.48-12.75,26.25-19.1.6-.44,1.34-.69,2.81-.33-1.37,1.91-2.69,3.86-4.13,5.73-33.84,43.92-67.71,87.82-101.55,131.75-14.94,19.39-29.76,38.88-44.78,58.2-2.09,2.69-2.77,5.26-2.67,8.6.66,23.36-8.74,41.56-28.72,54.55Z"/>
    <path class="st0" d="M184.8,286.9c-10.15,10.61-22.74,13.52-35.26,8.38-11.03-4.53-18.21-16.31-17.83-29.27.35-12.28,8.32-23.04,20.1-27.15,12.14-4.24,26.16.12,33.88,10.53,8.01,10.79,7.75,25.28-.89,37.51Z"/>
    <path class="st0" d="M400.86,425.39c-12.79-4.37-20.06-13.1-21.64-25.98-1.5-12.27,3.03-22.27,13.52-29.15,10.65-6.98,24.43-6.13,34.55,1.88,10.43,8.26,14.63,22.01,10.41,34.07-4.46,12.73-15.55,20.53-29.05,20.26-2.47-.05-4.94-.63-7.79-1.08Z"/>
    <path class="st5" d="M983.33,41.35c-145.09,0-270.92,82.44-333.21,203.03l83.31,42.95c22.12-42.83,54.93-79.23,94.9-105.7l-31.93-55.3,28.35-16.37,31.88,55.21c38.07-19.26,81.12-30.12,126.7-30.12s86.26,10.28,123.55,28.55l31.99-55.4,28.35,16.37-31.83,55.13c8.6,5.54,16.88,11.55,24.8,17.98l84.16-42.81-46.41,79.75c6.46,7.63,12.54,15.61,18.17,23.91l54.75-31.61,16.37,28.35-54.35,31.38c20.16,38.76,31.56,82.8,31.56,129.51,0,30.1-4.75,59.08-13.51,86.27l89.22,28.76c11.68-36.25,17.99-74.9,17.99-115.03,0-207-167.81-374.81-374.81-374.81Z"/>
    <rect class="st4" x="965.2" y="71.38" width="32.74" height="87.29"/>
    <rect class="st4" x="1264.28" y="340.17" width="32.74" height="87.29" transform="translate(1541.47 -927.43) rotate(84.57)"/>
  </g>
</svg>