<?xml version="1.0" encoding="UTF-8"?>
<svg id="Layer_1" xmlns="http://www.w3.org/2000/svg" version="1.1" viewBox="0 0 1404.3 1066.11">
  <!-- Generator: Adobe Illustrator 29.7.1, SVG Export Plug-In . SVG Version: 2.1.1 Build 8)  -->
  <defs>
    <style>
      .st0 {
        fill: #fcfcfb;
      }

      .st1 {
        fill: #020202;
      }

      .st2 {
        fill: #fff;
      }

      .st3 {
        fill: #323537;
      }

      .st4 {
        fill: #313536;
      }

      .st5 {
        fill: #f70505;
      }
    </style>
  </defs>
  <path class="st2" d="M985.86,10.1c-117.31,0-223.05,48.42-297.46,125.93-.27-.61-.54-1.22-.8-1.83-4.66-10.68-9.49-21.73-14.44-32.65-14.41-31.79-43.09-50.1-78.68-50.24-69.35-.26-141.6-.26-214.75.02-36.65.14-65.57,19.54-79.32,53.25-2.49,6.1-5.11,12.36-7.65,18.41-.47,1.13-.95,2.26-1.42,3.39-8.17-16.23-24.77-26.96-44.47-27.02-31.73-.09-59.63-.07-85.29.08-22.71.13-41.16,14.06-47.82,34.28-22.39,4.61-42.53,15.3-58.14,31.14-20.74,21.04-32.26,49.89-32.45,81.24-.13,21.96-.1,44.22-.07,65.75.01,8.32.02,16.64.02,24.96l.03,99.62c.02,64.79.05,129.57.05,194.36,0,17.01,3.05,32.89,9.07,47.2,18.35,43.65,61.37,71.84,109.61,71.84h.02c55.59,0,112.1-.07,166.76-.13,36.92-.04,73.83-.08,110.75-.11,45.16-.03,135.49-.07,135.49-.07l157.14,304.8,108.09-280.89c50.64,22.04,106.71,34.3,165.72,34.3,225.28,0,407.91-178.55,407.91-398.81S1211.14,10.1,985.86,10.1Z"/>
  <g id="Layer_11" data-name="Layer_1">
    <path class="st4" d="M610.85,276.16c-4.71,15.05-9.28,29.78-13.78,44.27-35.44-38.37-79.57-57.56-132.42-53.64-44.68,3.31-82.05,22.8-111.41,56.61-57.65,66.38-50.97,167.51,14.94,225.99,37.16,32.97,80.88,46.75,130.13,40.19,49.22-6.56,86.62-32.61,114.27-73.43,7.32,43.24,49.85,119.44,88.64,153.98-38.79,0-162.57.07-258.86.14-85.1.06-172.19.2-257.29.22-33.93,0-55.03-12.75-69.17-46.37-4.16-9.89-5.82-20.25-5.82-30.95,0-90.16-.06-163.31-.08-253.47,0-27.76-.12-43.5.04-71.26.25-42.2,30.43-72.75,72.62-73.72,2.57-.06,5.14,0,8.26,0,0-5.16-.06-9.86,0-14.57.14-8.51,5.9-14.57,14.43-14.62,26.06-.15,7.13-.15,33.2-.07,8.18.03,13.51,5.34,13.8,13.51.17,5.04.04,10.1.04,15.56,1.52.11,2.82.28,4.14.28,12.42.04,69.85-.21,82.25.18,4.4.14,6.12-1.58,7.6-5.28,5.3-13.22,10.97-26.28,16.35-39.48,7.93-19.43,22.79-28.88,43.29-28.96,65.78-.25,101.55-.27,167.33-.02,19.75.07,34.79,8.82,43.18,27.31l33.51,52.86c-10.63,15.95-25.98,39.38-39.17,74.72M226.77,316.22c7.74-11,7.98-24.32.61-34.25-7.1-9.58-20-13.59-31.17-9.69-10.83,3.78-18.16,13.68-18.49,24.98-.34,11.92,6.26,22.75,16.4,26.93,11.52,4.73,23.1,2.05,32.64-7.96h0Z"/>
    <path class="st3" d="M570.22,492.19c-35.47,53.61-109.87,66.37-160.96,27.77-29.3-22.14-45.51-51.48-46.4-88.3-1.29-54.42,35.76-101.33,88.85-113.68,61.78-14.36,124.09,26.86,135.61,89.64,5.58,30.39-.04,58.46-17.11,84.58M425.68,413.99c2.27.31,4.54.85,6.81.89,12.42.24,22.62-6.93,26.73-18.64,3.88-11.09.02-23.75-9.58-31.34-9.31-7.38-21.99-8.15-31.79-1.73-9.65,6.32-13.82,15.53-12.44,26.82,1.45,11.85,8.14,19.88,20.27,24h0Z"/>
    <path class="st1" d="M1013.98,454.28c-28.98,15.81-63.85,3.78-74.46-25.42-13.51-37.18,16.45-74.14,55.61-68.72,1.33.19,3.09-.3,4.16-1.1,48.46-36.43,96.86-72.95,145.29-109.41,7.39-5.57,14.94-10.9,22.44-16.33.51-.38,1.15-.59,2.4-.28-1.17,1.63-2.3,3.3-3.53,4.9-28.93,37.55-57.88,75.07-86.81,112.63-12.77,16.58-25.44,33.24-38.28,49.75-1.79,2.3-2.37,4.5-2.28,7.35.56,19.97-7.47,35.53-24.55,46.63h0Z"/>
    <path class="st0" d="M226.55,316.48c-9.34,9.76-20.92,12.44-32.44,7.71-10.15-4.17-16.75-15.01-16.4-26.93.32-11.3,7.65-21.2,18.49-24.98,11.17-3.9,24.07.11,31.17,9.69,7.37,9.93,7.13,23.26-.82,34.51h0Z"/>
    <path class="st0" d="M425.33,413.89c-11.77-4.02-18.46-12.05-19.91-23.9-1.38-11.29,2.79-20.49,12.44-26.82,9.8-6.42,22.48-5.64,31.79,1.73,9.6,7.6,13.46,20.25,9.58,31.34-4.1,11.71-14.31,18.89-26.73,18.64-2.27-.05-4.54-.58-7.17-.99h0Z"/>
    <path class="st5" d="M987.47,93.38c-124.03,0-231.6,70.47-284.85,173.56l71.22,36.72c18.91-36.61,46.96-67.73,81.13-90.36l-27.3-47.27,24.24-13.99,27.25,47.2c32.54-16.46,69.35-25.75,108.31-25.75s73.74,8.79,105.62,24.41l27.35-47.36,24.24,13.99-27.21,47.13c7.35,4.74,14.43,9.87,21.2,15.37l71.95-36.6-39.67,68.18c5.52,6.52,10.72,13.34,15.53,20.44l46.8-27.02,13.99,24.24-46.46,26.83c17.23,33.13,26.98,70.78,26.98,110.71,0,25.73-4.06,50.51-11.55,73.75l76.27,24.59c9.98-30.99,15.38-64.03,15.38-98.34,0-176.96-143.45-320.41-320.41-320.41h0Z"/>
    <rect class="st4" x="971.97" y="119.05" width="27.99" height="74.62"/>
    <rect class="st4" x="1204.26" y="372.13" width="74.62" height="27.99" transform="translate(-30.97 119.22) rotate(-5.43)"/>
  </g>
</svg>